<svg width="40" height="35" viewBox="0 0 40 35" fill="none" xmlns="http://www.w3.org/2000/svg">
<path fill-rule="evenodd" clip-rule="evenodd" d="M32.22 16.145C32.2963 17.7872 33.4779 19.2307 35.162 19.5544C35.3932 19.5989 35.6253 19.6203 35.8556 19.6203C36.5765 19.6203 37.2812 19.4054 37.8908 18.9918C38.6957 18.4464 39.2394 17.6193 39.4226 16.6646C39.8011 14.6936 38.5047 12.7816 36.532 12.4032C34.8478 12.0838 33.2158 12.9863 32.5377 14.4829L21.7167 12.4084L9.73975 0.431538L9.73547 0.434963L8.11206 0L8.54703 1.62341L8.54274 1.62769L18.7558 11.8408L7.2858 9.64112L3.62629 5.98246L3.62287 5.98588L1.99946 5.55092L2.43442 7.17518L2.43014 7.17861L4.32497 9.07344L1.58847 8.54943L1.58761 8.55456L0.000171661 9.10597L1.27166 10.2054L1.26995 10.2114L6.45697 11.2054L24.7134 29.4619L24.7137 29.4622C23.8545 30.8638 24.0216 32.7222 25.2347 33.9344C25.9437 34.6442 26.8761 34.9996 27.8085 34.9996C28.741 34.9996 29.6725 34.6442 30.3824 33.9344C31.0699 33.2477 31.4492 32.3333 31.4492 31.3606C31.4492 30.3879 31.0699 29.4735 30.3824 28.7859C29.1701 27.5736 27.3114 27.4066 25.9098 28.2651L9.41781 11.7731L20.8878 13.9719L30.8269 23.911L31.1815 24.2664L31.1812 24.2667L30.8259 23.9114C29.9671 25.313 30.1341 27.1719 31.3465 28.3843C32.034 29.0718 32.9485 29.4512 33.9212 29.4512C34.8938 29.4512 35.8083 29.0718 36.4958 28.3843C37.9155 26.9647 37.9155 24.6554 36.4958 23.2358C35.8091 22.5483 34.8947 22.1689 33.922 22.1689C33.2396 22.1689 32.5906 22.365 32.0238 22.7144L32.3791 23.0697L32.3789 23.0698L32.0231 22.7148L23.8487 14.5396L32.22 16.145L32.22 16.145ZM26.1657 28.5216L26.2656 28.6215H26.2665L25.0703 29.8177L25.0702 29.8176L26.2658 28.622L26.1657 28.5216ZM36.8514 15.2981C36.6699 15.0301 36.3941 14.8485 36.0756 14.7878C35.9986 14.7723 35.9215 14.7655 35.8445 14.7655C35.6039 14.7655 35.3692 14.8366 35.1663 14.9753C34.8983 15.1568 34.7168 15.4325 34.656 15.751C34.5301 16.4086 34.9625 17.0456 35.6193 17.1715C35.9378 17.2349 36.2606 17.1664 36.5286 16.984C36.7966 16.8025 36.9781 16.5268 37.0389 16.2082C37.0997 15.8897 37.0338 15.5669 36.8514 15.2981ZM34.7799 24.9508C35.2534 25.4243 35.2534 26.1941 34.7799 26.6667C34.3219 27.1256 33.5222 27.1256 33.0641 26.6667C32.5906 26.1941 32.5906 25.4243 33.0641 24.9508C33.2935 24.7214 33.5975 24.5955 33.922 24.5955C34.2465 24.5955 34.5505 24.7214 34.7799 24.9508ZM28.6665 32.2186C28.193 32.6929 27.4224 32.6921 26.9506 32.2186H26.9497C26.4763 31.7459 26.4763 30.9753 26.9497 30.5027C27.1861 30.2655 27.4969 30.1473 27.8077 30.1473C28.1185 30.1473 28.4293 30.2664 28.6656 30.5027C28.8959 30.7321 29.0218 31.037 29.0218 31.3606C29.0218 31.6843 28.896 31.9891 28.6665 32.2186Z" fill="white"/>
</svg>
