<svg width="45" height="46" viewBox="0 0 45 46" fill="none" xmlns="http://www.w3.org/2000/svg">
<path d="M32.0665 0H12.9335C5.79037 0 0 5.78734 0 12.9267V32.8141C0 39.9535 5.79037 45.7408 12.9335 45.7408H32.0665C39.2096 45.7408 45 39.9535 45 32.8141V12.9267C45 5.78734 39.2096 0 32.0665 0ZM4.5919 12.9267C4.5919 8.32926 8.33363 4.5895 12.9335 4.5895H32.0665C36.6664 4.5895 40.4081 8.32926 40.4081 12.9267V32.8141C40.4081 37.4115 36.6664 41.1513 32.0665 41.1513H12.9335C8.33363 41.1513 4.5919 37.4115 4.5919 32.8141V12.9267Z" fill="white"/>
<path d="M22.4992 34.6508C28.9981 34.6508 34.2852 29.3664 34.2852 22.8716C34.2852 16.3768 28.9981 11.0918 22.4992 11.0918C16.0004 11.0918 10.7139 16.3762 10.7139 22.8716C10.7139 29.3671 16.001 34.6508 22.4992 34.6508ZM22.4992 14.7634C26.9726 14.7634 30.611 18.4006 30.611 22.8716C30.611 27.3427 26.9719 30.9799 22.4992 30.9799C18.0265 30.9799 14.3874 27.3427 14.3874 22.8716C14.3874 18.4006 18.0265 14.7634 22.4992 14.7634Z" fill="white"/>
<path d="M34.6299 13.3858C36.0879 13.3858 37.2704 12.2039 37.2704 10.7466C37.2704 9.28938 36.0879 8.10742 34.6299 8.10742C33.1718 8.10742 31.9893 9.28938 31.9893 10.7466C31.9893 12.2039 33.1712 13.3858 34.6299 13.3858Z" fill="white"/>
</svg>
