<svg width="290" height="64" viewBox="0 0 290 64" fill="none" xmlns="http://www.w3.org/2000/svg">
<path d="M192.94 63.9899C192.496 63.8819 192.05 63.783 191.609 63.6647C190.566 63.3858 189.632 62.9064 188.794 62.2124C187.76 61.3564 187.143 60.2601 186.892 58.9748C186.613 57.5469 186.749 56.1382 187.311 54.7772C187.854 53.4611 188.641 52.3056 189.573 51.2466C190.25 50.4767 190.932 49.7094 191.653 48.9807C192.443 48.1812 193.275 47.4242 194.097 46.6569C194.885 45.9205 195.685 45.1969 196.48 44.4668C197.03 43.9604 197.582 43.4553 198.13 42.9464C198.176 42.9027 198.237 42.8384 198.235 42.7844C198.216 42.0081 198.188 41.2331 198.162 40.4915C197.65 41.0558 197.159 41.6534 196.61 42.1932C195.451 43.3332 194.059 44.0466 192.459 44.3576C191.309 44.5812 190.179 44.5337 189.068 44.1609C187.827 43.7445 186.799 43.0145 186.01 41.9734C185.591 41.4208 185.219 40.8321 184.853 40.2987C184.486 40.8848 184.13 41.5274 183.706 42.1212C182.848 43.3217 181.702 44.0812 180.228 44.364C178.499 44.6956 177.015 44.2046 175.676 43.1404C174.587 42.2742 173.984 41.1136 173.691 39.7756C173.652 39.6008 173.629 39.4235 173.598 39.2487C173.244 39.7795 172.901 40.3296 172.523 40.8565C171.764 41.9143 170.814 42.76 169.689 43.4193C168.973 43.8396 168.215 44.1584 167.41 44.3203C165.321 44.7406 163.394 44.4013 161.71 43.0081C160.62 42.1071 159.87 40.9735 159.342 39.6805C159.07 39.0109 158.833 38.3259 158.599 37.6987C158.306 38.3271 158.013 39.0302 157.658 39.6998C156.983 40.9735 156.144 42.1354 155.065 43.1006C154.294 43.7921 153.418 44.3422 152.369 44.4655C151.487 44.5696 150.608 44.4437 149.771 44.1211C148.313 43.5569 147.327 42.4798 146.599 41.1432C145.804 39.6831 145.366 38.1048 145.129 36.4661C145.057 35.9636 145 35.4597 144.931 34.9559C144.922 34.8917 144.879 34.8313 144.845 34.749C144.505 35.4353 144.184 36.0985 143.851 36.7566C143.228 37.9853 142.47 39.124 141.585 40.1831C140.401 41.602 139.016 42.76 137.327 43.5363C136.364 43.9797 135.361 44.3087 134.308 44.409C133.309 44.5041 132.295 44.6031 131.3 44.5285C129.531 44.3961 127.773 44.1147 126.192 43.2163C125.702 42.9374 125.183 42.6623 125.016 42.048C124.877 41.5377 125.021 41.0635 125.207 40.5995C125.563 39.7075 126.087 38.9325 126.871 38.3619C127.275 38.0675 127.742 38.0521 128.162 38.2886C128.647 38.5611 129.096 38.9004 129.552 39.2204C130.211 39.6831 130.883 40.1188 131.686 40.291C132.68 40.5044 133.547 40.2897 134.205 39.48C134.874 38.6587 135.109 37.6832 135.038 36.655C134.961 35.5279 134.52 34.5164 133.877 33.5884C133.216 32.6347 132.416 31.8135 131.54 31.0577C131.225 30.7853 130.927 30.4935 130.622 30.2082C130.231 29.8419 129.837 29.4807 129.457 29.1042C129.298 28.9448 129.221 28.9576 129.106 29.1517C128.21 30.6786 127.306 32.2003 126.401 33.7208C125.776 34.7708 125.147 35.8196 124.517 36.8671C123.658 38.2989 122.752 39.6947 121.676 40.9786C120.794 42.0313 119.827 42.9759 118.666 43.7072C117.796 44.256 116.849 44.5748 115.803 44.4823C114.391 44.3563 113.535 43.517 113.02 42.2652C112.622 41.2935 112.397 40.2769 112.307 39.2307C112.234 38.3837 112.156 37.5354 112.118 36.6859C112.073 35.7117 112.042 34.7349 112.055 33.7594C112.07 32.5191 112.131 31.2788 112.179 30.0385C112.217 29.0887 112.266 28.1389 112.307 27.1891C112.352 26.1429 112.394 25.0954 112.437 24.0492C112.46 23.494 112.484 22.9388 112.497 22.3822C112.5 22.2846 112.446 22.1869 112.419 22.0892C112.317 22.1355 112.188 22.156 112.12 22.2319C111.665 22.7383 111.185 23.2292 110.783 23.7755C109.721 25.2137 108.819 26.7534 108.061 28.3703C107.09 30.4395 106.262 32.5666 105.638 34.7683C105.183 36.3761 104.719 37.9827 104.325 39.606C104.078 40.6278 103.952 41.6804 103.78 42.7202C103.723 43.0646 103.712 43.4168 103.641 43.7574C103.551 44.1828 103.174 44.3409 102.822 44.3987C101.86 44.5555 100.894 44.5375 99.9387 44.3036C99.234 44.1314 98.829 43.6263 98.5602 43.0145C98.2079 42.2099 98.1063 41.3475 98.0934 40.4735C98.0703 38.8194 98.0291 37.1666 98.033 35.5124C98.0407 31.942 98.069 28.3728 98.0947 24.8024C98.1101 22.6637 98.1384 20.5263 98.1564 18.3877C98.1603 17.9468 98.4368 17.4816 99.0656 17.4713C100.475 17.4507 101.751 17.8723 102.976 18.5111C103.246 18.6524 103.386 18.8851 103.388 19.1781C103.393 21.4492 103.39 23.7215 103.39 25.9925C103.39 27.7623 103.39 29.5334 103.39 31.2878C103.619 30.6632 103.861 30.009 104.1 29.3535C104.748 27.5747 105.351 25.7805 106.161 24.0621C106.867 22.5648 107.681 21.1356 108.743 19.8721C109.519 18.9493 110.42 18.1499 111.598 17.7335C112.712 17.3402 113.806 17.3607 114.862 17.8916C115.825 18.3761 116.814 18.8362 117.553 19.6614C118.159 20.3374 118.33 21.142 118.209 22.0237C118.202 22.0764 118.19 22.1291 118.187 22.1817C118.164 22.9529 118.146 23.7241 118.122 24.4939C118.081 25.7985 118.036 27.1043 117.993 28.4088C117.97 29.1041 117.942 29.7995 117.93 30.4961C117.903 32.0101 117.836 33.5254 117.881 35.0369C117.913 36.1217 117.919 37.2193 118.24 38.2835C118.556 39.3322 119.202 39.2153 119.813 38.6832C120.661 37.9441 121.29 37.0188 121.872 36.0664C122.63 34.8248 123.377 33.5768 124.108 32.3199C124.653 31.3803 125.169 30.4241 125.688 29.4704C126.173 28.581 126.646 27.6852 127.122 26.7958C126.572 26.1673 126.116 25.517 125.855 24.7394C125.416 23.4246 125.587 22.1483 126.077 20.8952C126.404 20.0585 126.905 19.3221 127.545 18.6948C128.475 17.7862 129.556 17.1782 130.877 17.0214C131.717 16.9225 132.52 16.9687 133.31 17.2836C134.016 17.5651 134.413 18.2746 134.467 18.9558C134.579 20.3657 134.036 21.5918 133.346 22.7588C132.896 23.5197 132.375 24.2382 131.881 24.972C131.799 25.0954 131.69 25.2008 131.569 25.3422C131.961 25.6442 132.354 25.9514 132.753 26.2535C133.982 27.1853 135.221 28.1055 136.439 29.0515C137.034 29.5141 137.633 29.9833 138.157 30.5218C139.17 31.5628 139.967 32.7466 140.308 34.1938C140.548 35.2156 140.525 36.2348 140.347 37.3478C140.728 36.9661 141.104 36.664 141.387 36.2913C141.954 35.5446 142.498 34.7786 142.999 33.9868C143.734 32.8301 144.225 31.5628 144.546 30.2326C144.654 29.7853 144.699 29.3406 144.697 28.8677C144.684 25.2985 144.717 21.7281 144.746 18.1589C144.751 17.5613 144.804 16.9649 144.836 16.3544C144.359 16.3184 143.927 16.2863 143.494 16.2541C143.473 16.2529 143.452 16.2541 143.43 16.2541C142.003 16.2323 140.574 16.2143 139.147 16.1886C138.384 16.1745 138.099 15.866 138.087 15.1013C138.072 14.1258 138.31 13.2184 138.776 12.3662C139.007 11.9472 139.244 11.8174 139.71 11.8611C139.795 11.8688 139.882 11.8611 139.968 11.8624C140.901 11.8843 141.834 11.8958 142.767 11.9305C143.542 11.9601 144.317 12.0167 145.133 12.0642C145.133 11.5437 145.121 11.0514 145.135 10.5605C145.173 9.20194 145.212 7.84214 145.266 6.48362C145.29 5.9104 145.332 5.33589 145.398 4.76523C145.463 4.19586 145.687 3.71646 146.297 3.52881C146.641 3.52881 146.986 3.52881 147.33 3.52881C147.612 3.59307 147.892 3.66376 148.174 3.72288C149.187 3.93495 150.174 4.22671 151.099 4.69968C151.412 4.85906 151.622 5.07883 151.598 5.47469C151.543 6.43478 151.501 7.39487 151.467 8.35624C151.435 9.2662 151.427 10.1787 151.398 11.0887C151.385 11.4678 151.345 11.8457 151.317 12.2339C152.262 12.3071 153.152 12.3868 154.043 12.4408C155.014 12.4986 155.986 12.5243 156.957 12.5757C157.563 12.6079 158.17 12.6413 158.771 12.712C159.058 12.7454 159.41 12.7428 159.498 13.1425C159.535 13.316 159.596 13.4908 159.601 13.6656C159.615 14.298 159.45 14.8969 159.219 15.4804C158.963 16.1269 158.522 16.402 157.8 16.3968C155.706 16.3814 153.61 16.4264 151.514 16.4482C151.492 16.4482 151.47 16.4495 151.449 16.4482C151.268 16.4341 151.21 16.5215 151.202 16.6976C151.166 17.6371 151.115 18.5753 151.078 19.5148C151.03 20.669 150.989 21.8232 150.948 22.9773C150.923 23.6726 150.903 24.368 150.883 25.0646C150.86 25.8897 150.837 26.7136 150.819 27.5387C150.795 28.7083 150.76 29.8766 150.759 31.0462C150.759 32.0975 150.779 33.1488 150.824 34.1989C150.858 34.9623 150.934 35.7245 151.015 36.4854C151.125 37.511 151.376 38.502 151.903 39.3965C152.383 40.2113 152.94 40.5224 153.876 40.0481C154.485 39.7397 154.962 39.2937 155.406 38.7808C156.325 37.7167 156.936 36.4815 157.465 35.1988C157.938 34.0485 158.067 32.8327 158.128 31.6001C158.179 30.5925 158.262 29.5848 158.388 28.5849C158.504 27.6659 158.647 26.7444 158.861 25.8435C159.233 24.2832 159.769 22.7807 160.619 21.399C161.325 20.25 162.113 19.1781 163.181 18.3388C164.661 17.1757 166.353 16.7657 168.197 17.0433C169.717 17.2721 170.965 18.0252 171.955 19.2012C172.154 19.4377 172.36 19.6678 172.594 19.939C172.594 19.6177 172.614 19.3478 172.589 19.0817C172.546 18.6344 173.035 17.9841 173.517 17.943C173.977 17.9044 174.448 17.898 174.908 17.943C175.816 18.0329 176.692 18.2604 177.497 18.7103C177.978 18.9789 178.266 19.3426 178.221 19.9428C178.167 20.6677 178.171 21.3977 178.149 22.1265C178.128 22.7678 178.104 23.4105 178.085 24.0518C178.062 24.8332 178.042 25.6147 178.019 26.3974C177.999 27.0824 177.955 27.7675 177.959 28.4512C177.969 30.5783 177.974 32.7067 178.029 34.8325C178.054 35.7965 178.172 36.7591 178.283 37.7192C178.382 38.5701 178.606 39.3849 179.044 40.1394C179.607 41.1084 181.005 41.4143 181.892 40.5339C182.744 39.6895 183.201 38.651 183.569 37.5521C183.668 37.2578 183.765 36.9339 183.743 36.6319C183.676 35.7245 183.487 34.8235 183.462 33.9162C183.416 32.2595 183.39 30.5963 183.645 28.9486C183.794 27.9808 183.937 27.0079 184.148 26.0529C184.482 24.5441 185.045 23.1148 185.773 21.7512C186.492 20.403 187.349 19.1665 188.598 18.2424C190.075 17.1513 191.727 16.7734 193.525 17.042C194.866 17.2412 195.995 17.8813 196.934 18.8555C197.24 19.173 197.531 19.5033 197.858 19.8606C197.858 19.7115 197.866 19.5971 197.858 19.4827C197.774 18.3555 198.536 17.8633 199.484 17.8761C200.595 17.8916 201.655 18.164 202.676 18.5959C203.29 18.8555 203.613 19.2925 203.546 19.9814C203.515 20.2988 203.495 20.6189 203.482 20.9376C203.455 21.6008 203.43 22.264 203.418 22.9272C203.391 24.2253 203.357 25.5234 203.355 26.8228C203.346 30.2467 203.352 33.6694 203.352 37.0933C203.352 37.1948 203.352 37.2964 203.352 37.3992C206.267 33.2915 208.493 28.8767 209.64 24.1469C209.265 23.7138 208.941 23.377 208.659 23.0069C208.156 22.345 207.913 21.5725 207.956 20.7525C207.985 20.1909 208.114 19.6241 208.273 19.0817C208.518 18.2501 209 17.5497 209.703 17.0343C210.585 16.3878 211.585 16.2169 212.654 16.3852C213.27 16.4816 213.781 16.7284 214.189 17.2271C214.608 17.7412 214.69 18.3478 214.703 18.9506C214.713 19.4879 214.581 20.0277 214.507 20.5855C214.885 20.5199 215.257 20.4595 215.629 20.3927C216.542 20.2282 217.452 20.0508 218.367 19.8979C219.393 19.7269 220.388 19.4197 221.467 19.5354C223.144 19.7141 224.001 21.0919 223.881 22.4825C223.811 23.2858 223.612 24.0814 223.431 24.8718C223.025 26.6275 222.59 28.3767 222.412 30.1761C222.312 31.1914 222.219 32.208 222.161 33.226C222.134 33.7041 222.179 34.1873 222.22 34.6655C222.294 35.5099 222.345 36.3607 222.487 37.1948C222.668 38.2565 222.977 39.286 223.64 40.1689C224.628 41.4838 225.986 41.2627 226.882 40.2897C227.642 39.4659 227.997 38.4184 228.244 37.3388C228.258 37.2758 228.246 37.2025 228.233 37.137C227.951 35.7181 227.823 34.2812 227.781 32.8378C227.763 32.208 227.798 31.5744 227.843 30.9459C227.912 29.9717 227.962 28.9923 228.109 28.0284C228.264 27.0118 228.482 25.999 228.745 25.0055C229.221 23.2151 230.052 21.588 231.142 20.0881C231.73 19.2809 232.408 18.5612 233.242 18.0227C234.949 16.9212 236.809 16.6808 238.747 17.2656C240.14 17.6846 241.178 18.619 242.052 19.75C242.098 19.8092 242.154 19.8606 242.246 19.9595C242.246 19.6215 242.26 19.3516 242.244 19.0856C242.204 18.4828 242.596 18.0317 243.17 17.9533C243.625 17.8916 244.101 17.9044 244.56 17.9494C245.467 18.0381 246.343 18.2669 247.148 18.7154C247.63 18.984 247.935 19.3465 247.871 19.9467C247.826 20.3708 247.817 20.7988 247.803 21.2255C247.777 21.9967 247.758 22.7678 247.737 23.5377C247.715 24.3307 247.695 25.1224 247.673 25.9154C247.652 26.6223 247.602 27.3292 247.614 28.0348C247.666 31.248 247.429 34.4688 247.866 37.673C247.975 38.4801 248.145 39.2615 248.501 40.007C249.093 41.246 250.555 41.4927 251.556 40.3553C252.053 39.7923 252.476 39.1356 252.802 38.4582C253.208 37.619 253.503 36.7244 253.798 35.8376C253.962 35.3415 254.113 34.8133 254.122 34.2979C254.172 31.041 254.176 27.7829 254.202 24.5248C254.217 22.5159 254.243 20.5071 254.266 18.4982C254.271 18.0291 254.51 17.6756 254.958 17.5625C255.22 17.4957 255.516 17.4546 255.778 17.5034C256.709 17.6744 257.635 17.8774 258.558 18.0895C259.41 18.2849 259.707 18.9403 259.701 19.5868C259.68 22.3964 259.692 25.206 259.692 28.0155C259.692 28.1235 259.692 28.2315 259.692 28.3394C259.763 28.2739 259.797 28.2096 259.82 28.1428C260.469 26.2085 261.101 24.2677 261.771 22.3411C262.209 21.079 262.678 19.8259 263.342 18.6589C263.681 18.0612 264.094 17.5458 264.852 17.4944C266.27 17.3967 267.558 17.799 268.703 18.6126C269.451 19.1447 269.899 19.9056 269.959 20.8387C270.012 21.6394 270.012 22.4452 270.03 23.2485C270.054 24.4065 270.07 25.5658 270.097 26.7239C270.107 27.1608 270.13 27.5991 270.163 28.0348C270.244 29.117 270.328 30.1979 270.421 31.2788C270.458 31.7107 270.519 32.1412 270.575 32.6296C270.631 32.5435 270.665 32.5127 270.672 32.4767C270.871 31.3559 271.005 30.2198 271.279 29.117C271.691 27.4564 272.153 25.8023 272.687 24.1765C273.26 22.4298 273.896 20.6999 274.593 18.9982C275.152 17.6332 276.011 17.3055 277.221 17.5291C278.646 17.7926 280.001 18.3157 281.151 19.2449C281.646 19.6447 281.965 20.1703 281.978 20.8232C281.987 21.3142 281.939 21.8052 281.92 22.2961C281.876 23.3642 281.827 24.4322 281.792 25.5003C281.762 26.4321 281.728 27.3652 281.731 28.297C281.733 29.6067 281.759 30.9151 281.794 32.2248C281.821 33.2607 281.855 34.2979 281.927 35.3312C281.974 36.0047 282.06 36.6794 282.187 37.3439C282.375 38.3297 282.663 39.2847 283.279 40.106C283.811 40.8154 284.61 41.1457 285.455 40.5609C285.865 40.2769 286.108 39.8682 286.314 39.4415C286.787 38.4608 287.049 37.4095 287.289 36.3517C287.413 35.799 287.508 35.2374 287.858 34.7593C288.074 34.4637 288.576 34.3441 288.87 34.4868C289.237 34.6629 289.329 35.0073 289.482 35.3222V36.9365C289.401 37.3337 289.318 37.7295 289.242 38.1267C289.055 39.1009 288.79 40.052 288.384 40.9594C287.971 41.8822 287.463 42.733 286.675 43.4013C285.576 44.3344 284.324 44.6288 282.915 44.436C281.71 44.2715 280.675 43.7599 279.788 42.9605C278.849 42.1148 278.234 41.0416 277.789 39.8682C277.215 38.3541 277 36.7656 276.829 35.1706C276.725 34.2079 276.674 33.2375 276.632 32.2697C276.588 31.2737 276.568 30.2763 276.568 29.2789C276.568 28.3574 276.604 27.4359 276.628 26.5144C276.645 25.8833 276.672 25.2522 276.691 24.6212C276.698 24.4091 276.691 24.197 276.691 23.985C276.656 23.9824 276.622 23.9811 276.587 23.9785C276.555 24.0428 276.519 24.1045 276.492 24.1713C275.975 25.4257 275.426 26.6686 274.953 27.9384C274.337 29.5951 273.821 31.2878 273.51 33.0319C273.2 34.7657 272.877 36.497 272.635 38.2411C272.504 39.1896 272.511 40.1599 272.499 41.12C272.493 41.6251 272.265 41.9374 271.854 42.1649C271.335 42.4503 270.769 42.4091 270.206 42.4297C268.5 42.4901 267.261 41.4079 266.823 39.9671C266.463 38.7847 266.248 37.5522 266.042 36.3299C265.857 35.2348 265.754 34.1244 265.649 33.0178C265.54 31.8739 265.465 30.7274 265.385 29.581C265.331 28.7931 265.289 28.0053 265.257 27.2161C265.225 26.4025 265.217 25.5877 265.183 24.7741C265.177 24.6083 265.101 24.4451 265.057 24.2806C264.927 24.3937 264.753 24.4811 264.674 24.6225C264.321 25.2574 263.971 25.8974 263.662 26.5542C262.785 28.4178 262.239 30.3971 261.704 32.3764C261.247 34.0678 261.062 35.8029 260.931 37.5431C260.856 38.5225 260.833 39.507 260.797 40.489C260.766 41.3462 260.755 42.2035 260.729 43.0595C260.711 43.6571 260.392 44.1982 259.955 44.2869C259.469 44.3846 258.974 44.4604 258.48 44.4823C257.969 44.5041 257.455 44.4604 256.943 44.4244C256.215 44.3743 255.543 44.1275 254.911 43.7754C254.676 43.6443 254.493 43.4399 254.466 43.1507C254.397 42.4001 254.337 41.6483 254.268 40.8977C254.256 40.755 254.226 40.6123 254.216 40.5507C253.766 41.2563 253.331 42.0287 252.805 42.733C252.372 43.3127 251.799 43.7869 251.128 44.0838C250.216 44.4874 249.257 44.5838 248.266 44.4308C246.626 44.1764 245.347 43.3474 244.385 42.021C243.782 41.1894 243.434 40.2383 243.249 39.178C243.059 39.4942 242.898 39.7641 242.736 40.0327C242.043 41.1804 241.181 42.1804 240.076 42.9464C238.283 44.1892 236.327 44.7959 234.135 44.3589C232.514 44.0363 231.239 43.152 230.241 41.8577C229.913 41.4323 229.642 40.9632 229.333 40.498C229.302 40.5584 229.278 40.6046 229.256 40.6496C228.732 41.7292 227.994 42.6392 227.048 43.3744C225.87 44.2895 224.535 44.6892 223.059 44.4128C221.745 44.1674 220.6 43.5363 219.62 42.6289C218.766 41.8372 218.162 40.8617 217.716 39.8001C216.993 38.083 216.759 36.2579 216.676 34.4161C216.637 33.5614 216.678 32.7003 216.737 31.8456C216.814 30.7236 216.897 29.599 217.064 28.4885C217.275 27.094 217.571 25.7124 217.837 24.3256C217.896 24.0145 217.823 23.886 217.506 23.8899C217.123 23.895 216.74 23.9361 216.355 23.949C215.552 23.976 214.748 24.0094 213.945 24.0068C213.679 24.0068 213.574 24.0981 213.499 24.3333C212.918 26.1635 212.141 27.9153 211.321 29.6465C210.886 30.5629 210.416 31.4626 209.939 32.3584C209.558 33.0756 209.172 33.7928 208.739 34.4791C208.013 35.6281 207.287 36.781 206.488 37.8786C205.587 39.1189 204.607 40.3026 203.655 41.5056C203.506 41.6945 203.405 41.8757 203.412 42.1341C203.447 43.2921 203.472 44.4514 203.481 45.6094C203.491 47.1594 203.496 48.7095 203.477 50.2595C203.468 50.9728 203.43 51.69 203.343 52.3969C203.227 53.339 203.073 54.2772 202.895 55.2103C202.647 56.5161 202.286 57.7937 201.718 58.9967C201.086 60.3321 200.151 61.4374 198.976 62.3306C198.174 62.9398 197.308 63.4385 196.324 63.7007C195.933 63.8048 195.541 63.8999 195.149 64.0002H192.953L192.94 63.9899ZM163.831 32.3353C163.865 32.9059 163.882 33.4406 163.932 33.9727C164.005 34.7528 164.059 35.5381 164.197 36.308C164.426 37.5881 164.774 38.8348 165.606 39.8836C166.353 40.827 167.409 41.2254 168.544 40.6522C169.843 39.998 170.602 38.8451 171.157 37.556C171.731 36.2258 172.115 34.8351 172.263 33.3905C172.388 32.1759 172.503 30.9601 172.577 29.7416C172.612 29.1684 172.564 28.5862 172.518 28.0117C172.45 27.1673 172.401 26.3151 172.25 25.4836C172.061 24.4348 171.717 23.4413 171.065 22.5571C170.255 21.4594 168.718 21.0469 167.471 21.6471C166.311 22.2049 165.669 23.1997 165.177 24.3024C164.445 25.9373 164.186 27.6955 164.001 29.4576C163.9 30.4228 163.883 31.3971 163.83 32.334L163.831 32.3353ZM242.174 29.5373C242.199 29.5347 242.223 29.5334 242.249 29.5309C242.16 28.4153 242.097 27.2971 241.974 26.1866C241.846 25.0402 241.558 23.9348 240.954 22.9285C240.328 21.8861 239.425 21.3245 238.207 21.3656C237.109 21.4029 236.3 22.0121 235.651 22.8449C234.862 23.8539 234.423 25.0312 234.173 26.2663C233.965 27.2996 233.825 28.3497 233.717 29.3998C233.61 30.437 233.549 31.4819 233.526 32.5255C233.511 33.1836 233.575 33.8455 233.651 34.5009C233.755 35.4019 233.854 36.3093 234.046 37.1948C234.3 38.3721 234.726 39.4929 235.662 40.3244C236.258 40.8527 236.943 41.0622 237.742 40.8218C238.728 40.5262 239.412 39.8643 239.98 39.0495C240.621 38.1318 241.01 37.1023 241.338 36.042C241.873 34.312 242.115 32.5371 242.174 30.7326C242.187 30.3341 242.176 29.9357 242.176 29.5386L242.174 29.5373ZM189.153 32.5358C189.167 33.9251 189.284 35.2978 189.578 36.655C189.837 37.8452 190.148 39.0071 190.967 39.9671C191.764 40.9041 192.792 41.2048 193.898 40.6393C195.163 39.9916 195.931 38.8824 196.416 37.5971C196.8 36.5792 197.128 35.5279 197.349 34.4624C197.595 33.2761 197.731 32.0615 197.838 30.8521C197.911 30.0167 197.876 29.1697 197.846 28.3291C197.811 27.4269 197.744 26.5234 197.654 25.625C197.556 24.6405 197.282 23.6996 196.782 22.8411C196.234 21.9016 195.404 21.363 194.313 21.3695C193.468 21.3746 192.716 21.7152 192.089 22.3039C191.082 23.2459 190.544 24.4644 190.116 25.7304C189.689 26.9912 189.476 28.3073 189.334 29.626C189.23 30.5912 189.213 31.5641 189.157 32.5345L189.153 32.5358ZM198.496 46.9924C198.472 46.9769 198.449 46.9615 198.424 46.9461C197.844 47.5579 197.255 48.1607 196.684 48.7814C195.899 49.6374 195.108 50.4895 194.356 51.3725C193.292 52.6205 192.351 53.952 191.677 55.4596C191.206 56.5135 190.866 57.5996 190.941 58.7666C191.002 59.6907 191.388 60.4709 192.166 61.0158C193.332 61.8332 195.029 61.4811 196.04 60.6007C196.747 59.9837 197.104 59.1625 197.398 58.3078C197.976 56.6305 198.189 54.8813 198.361 53.1282C198.436 52.3647 198.478 51.5962 198.49 50.8301C198.51 49.55 198.495 48.2712 198.495 46.9911L198.496 46.9924Z" fill="white"/>
<path d="M89.3015 3.53052C89.821 3.68089 90.3457 3.81328 90.8588 3.9855C91.5069 4.20271 92.0971 4.52274 92.5781 5.02527C92.8481 5.30803 92.9883 5.61777 92.9908 6.02006C92.9986 7.80271 93.0448 9.58537 93.0461 11.368C93.0539 17.5578 93.0539 23.7476 93.0461 29.9374C93.0436 31.828 93.0101 33.7186 92.9831 35.6093C92.9728 36.3367 92.96 37.0655 92.9163 37.7929C92.8018 39.7054 92.6141 41.6063 91.9595 43.4301C91.4773 44.7731 90.8459 46.0224 89.8892 47.0995C88.98 48.1225 87.9436 48.9502 86.6075 49.3358C86.3786 49.4014 86.1201 49.4052 85.8809 49.3795C85.5967 49.3499 85.4103 48.8873 85.5132 48.5081C85.7883 47.494 86.1021 46.4902 86.3426 45.4685C86.5162 44.7307 86.6371 43.9763 86.7078 43.2218C86.8107 42.1294 86.8711 41.0318 86.9045 39.9341C86.9508 38.4535 86.9637 36.9716 86.9727 35.4897C86.983 33.6711 86.9688 31.8512 86.9765 30.0325C86.9945 25.7847 87.0164 21.537 87.0408 17.2892C87.0588 14.1827 87.0871 11.075 87.0961 7.96851C87.0961 7.73074 86.9791 7.49425 86.9161 7.25648C86.7194 7.38243 86.5007 7.4814 86.331 7.63692C84.9563 8.89518 83.9649 10.4323 83.1728 12.1006C82.4424 13.6365 81.9383 15.2521 81.6168 16.9216C81.3467 18.3225 81.2747 19.7453 81.3635 21.163C81.4715 22.8685 81.9125 24.4854 82.8989 25.9223C83.1213 26.2462 83.2949 26.6202 83.4145 26.9955C83.6023 27.5815 83.2088 28.0879 82.5247 27.9723C81.0896 27.7281 79.9669 26.9723 78.9356 26.0187C78.1551 25.2964 77.5224 24.4661 77.0659 23.5047C76.675 22.6809 76.4126 21.8223 76.3072 20.9111C76.1207 19.2916 76.3046 17.7159 76.774 16.162C77.1816 14.8164 77.7063 13.5208 78.3724 12.2831C78.9832 11.147 79.6596 10.0506 80.5045 9.07255C81.1963 8.27312 81.901 7.4814 82.6507 6.73852C83.547 5.84912 84.5629 5.09725 85.6713 4.48804C86.3207 4.13073 87.0113 3.84927 87.6825 3.53438C88.2213 3.53438 88.7588 3.53438 89.2976 3.53438L89.3015 3.53052Z" fill="white"/>
<path d="M37.541 0H15.1415C6.77892 0 0 6.77537 0 15.1336V38.4162C0 46.7744 6.77892 53.5498 15.1415 53.5498H37.541C45.9036 53.5498 52.6825 46.7744 52.6825 38.4162V15.1336C52.6825 6.77537 45.9036 0 37.541 0ZM5.37585 15.1336C5.37585 9.75126 9.75637 5.37303 15.1415 5.37303H37.541C42.9262 5.37303 47.3067 9.75126 47.3067 15.1336V38.4162C47.3067 43.7986 42.9262 48.1768 37.541 48.1768H15.1415C9.75637 48.1768 5.37585 43.7986 5.37585 38.4162V15.1336Z" fill="white"/>
<path d="M26.3403 40.5662C33.9487 40.5662 40.1385 34.3796 40.1385 26.776C40.1385 19.1724 33.9487 12.9851 26.3403 12.9851C18.732 12.9851 12.543 19.1716 12.543 26.776C12.543 34.3804 18.7328 40.5662 26.3403 40.5662ZM26.3403 17.2835C31.5774 17.2835 35.837 21.5417 35.837 26.776C35.837 32.0104 31.5767 36.2685 26.3403 36.2685C21.104 36.2685 16.8437 32.0104 16.8437 26.776C16.8437 21.5417 21.104 17.2835 26.3403 17.2835Z" fill="white"/>
<path d="M40.5416 15.6713C42.2485 15.6713 43.633 14.2875 43.633 12.5815C43.633 10.8754 42.2485 9.4917 40.5416 9.4917C38.8347 9.4917 37.4502 10.8754 37.4502 12.5815C37.4502 14.2875 38.8339 15.6713 40.5416 15.6713Z" fill="white"/>
</svg>
