<svg width="26" height="41" viewBox="0 0 26 41" fill="none" xmlns="http://www.w3.org/2000/svg">
<path d="M18.7369 28.819L18.6543 28.8648L24.1838 38.8169L24.2664 38.771C25.4393 38.1225 25.8575 36.6386 25.2009 35.4563L22.0497 29.785C21.3931 28.6031 19.9098 28.1704 18.7372 28.819H18.7369Z" fill="white"/>
<path d="M18.0495 29.1986L17.2771 29.6258C16.5645 30.0199 16.0962 30.5729 15.8366 31.2311C13.7354 29.4086 11.8765 27.1603 10.3448 24.4038C8.81627 21.6528 7.7439 18.8038 7.28357 16.0511C8.05632 16.2507 8.84047 16.1804 9.57969 15.7715L10.3521 15.3443L4.82261 5.39258L4.24098 5.71426C4.24098 5.71426 4.23994 5.71495 4.23925 5.71529L4.05021 5.81976C3.81002 5.9525 3.59887 6.10455 3.41294 6.27142C-0.80778 9.6582 -0.452166 18.8935 4.42794 27.6764C9.34745 36.5304 17.0942 41.7383 22.2094 39.8337C22.4112 39.7717 22.6106 39.6869 22.8069 39.5783L23.5793 39.1511L18.0498 29.199L18.0495 29.1986Z" fill="white"/>
<path d="M5.50984 5.01232L5.42725 5.05818L10.9567 15.0103L11.0393 14.9644C12.2123 14.3159 12.6304 12.8316 11.9738 11.6497L8.82269 5.9784C8.16606 4.79649 6.68278 4.36379 5.50984 5.01232Z" fill="white"/>
<path d="M13.8901 6.40425L14.5409 7.52858L18.5878 5.55712L17.625 3.89355L13.8901 6.40425Z" fill="white"/>
<path d="M14.6512 0.960558L12.9834 0L11.0073 4.03738L12.1346 4.6866L14.6512 0.960558Z" fill="white"/>
<path d="M15.1543 11.2026L19.647 11.5139V9.59277L15.1543 9.90411V11.2026Z" fill="white"/>
</svg>
