<svg width="546" height="358" viewBox="0 0 546 358" fill="none" xmlns="http://www.w3.org/2000/svg">
<path d="M539.341 5.32286L540.467 27.5702L541.327 49.2962L542.221 71.0221L542.95 92.748C543.413 107.239 543.81 121.709 544.108 136.2C544.439 150.691 544.804 165.161 544.969 179.652L545.598 223.104L545.896 266.556C546.062 281.047 545.995 295.516 545.929 310.007C545.929 324.499 545.631 338.968 545.433 353.459L545.366 358H538.546C527.522 357.935 516.464 357.739 505.44 357.631L472.333 357.24L406.12 356.457L339.906 355.675L273.693 355.197C251.611 355.176 229.562 355.024 207.48 355.089C185.397 355.154 163.348 355.132 141.266 355.284C119.184 355.371 97.135 355.523 75.0528 355.784L8.83948 356.414L4.37008 356.457L4.30387 353.438L3.17824 309.986C2.74785 295.494 2.483 281.025 2.25126 266.534L1.5229 223.082L1.02631 179.63L0.198638 92.7263C-1.76365e-06 78.2351 0 63.7656 0 49.2744V5.82255V0L8.83948 0.0434529C52.9707 0.238986 97.135 0.260712 141.266 0.564875C185.397 0.825586 229.562 1.12975 273.693 1.54254C295.775 1.69463 317.824 1.99879 339.906 2.2595L406.12 3.06336L439.226 3.49788L472.333 4.04103C494.415 4.38864 516.464 4.75798 538.546 5.25768H539.341V5.32286ZM537.686 6.43088C515.901 6.90885 494.117 7.27819 472.333 7.6258L439.226 8.16895L406.12 8.60347L339.906 9.40733C317.824 9.66804 295.775 9.97221 273.693 10.1243C229.562 10.5588 185.397 10.863 141.266 11.102C97.135 11.4061 52.9707 11.4496 8.83948 11.6234L17.679 5.82255V49.2744C17.679 63.7656 17.679 78.2351 17.4803 92.7263L16.6527 179.63L16.1561 223.082L15.4277 266.534C15.2291 281.025 14.9311 295.494 14.5007 309.986L13.3751 353.438L8.83948 350.461L75.0528 351.091C97.135 351.33 119.184 351.482 141.266 351.591C163.348 351.743 185.397 351.721 207.48 351.786C229.562 351.852 251.611 351.699 273.693 351.678L339.906 351.2L406.12 350.418L472.333 349.635L505.44 349.244C516.464 349.136 527.522 348.94 538.546 348.897L531.66 353.416C531.495 338.925 531.13 324.455 531.164 309.964C531.097 295.473 531.031 281.003 531.197 266.512L531.495 223.06L532.124 179.608C532.289 165.117 532.653 150.648 532.984 136.156C533.282 121.665 533.68 107.196 534.143 92.7046L534.872 70.9786L535.765 49.2527L536.626 27.5268L537.719 6.3657L537.686 6.43088Z" fill="url(#paint0_linear_6530_656)"/>
<defs>
<linearGradient id="paint0_linear_6530_656" x1="85.9781" y1="391.262" x2="273.306" y2="-103.2" gradientUnits="userSpaceOnUse">
<stop stop-color="#CC6600"/>
<stop offset="0.16" stop-color="#FFD700"/>
<stop offset="0.33" stop-color="#C89600"/>
<stop offset="0.5" stop-color="#FFFFAA"/>
<stop offset="0.67" stop-color="#C89600"/>
<stop offset="0.84" stop-color="#FAF064"/>
<stop offset="1" stop-color="#CC6600"/>
</linearGradient>
</defs>
</svg>
