<svg width="92" height="26" viewBox="0 0 92 26" fill="none" xmlns="http://www.w3.org/2000/svg">
<path d="M54.3649 0.554937C53.1133 0.671799 52.2132 1.52489 51.3554 1.62505C49.8278 1.86712 48.8627 1.8137 48.0787 2.26612C47.6866 2.50151 47.4247 2.89217 47.2911 3.39133C47.154 3.89551 47.1065 4.53156 47.1048 5.41804C47.1048 5.48983 47.1065 5.55995 47.1065 5.63173C46.5229 4.59333 45.7248 3.93557 43.995 4.51988C42.6045 4.98899 40.0556 5.90719 39.0624 7.15761C39.05 6.84876 39.0413 6.53991 39.029 6.23106C38.9868 5.28783 38.9217 4.44642 38.4945 3.76195C38.0621 3.06579 37.2253 2.6718 35.9825 2.66846C35.0842 2.68349 34.2844 3.14759 33.7236 3.21103C33.6339 3.22439 33.5285 3.23106 33.4107 3.23106C32.9624 3.23106 32.3788 3.14425 31.8866 3.14258C31.7688 3.14258 31.6545 3.14592 31.5403 3.16262C30.7686 3.26779 30.2658 3.83207 30.0214 4.49818C29.9125 4.78031 29.8351 5.0925 29.7824 5.42305C29.705 5.37798 29.6242 5.33624 29.5398 5.29784C27.9823 4.58833 25.6056 5.87547 23.867 5.88549C22.7806 5.8905 21.6011 5.86546 20.5463 6.0925C20.5024 5.24108 20.4162 4.47981 20.0242 3.8521C19.5918 3.15594 18.7533 2.76195 17.5122 2.75861C16.6139 2.77364 15.8123 3.23774 15.2515 3.29951C15.1636 3.31287 15.0581 3.31955 14.9386 3.31955C14.4921 3.32121 13.9085 3.23273 13.4145 3.23107C13.2985 3.23107 13.1825 3.23607 13.07 3.25277C12.2982 3.35794 11.7955 3.92222 11.5494 4.58833C11.4404 4.87046 11.3648 5.18265 11.3121 5.5132C11.2347 5.46813 11.1538 5.42639 11.0677 5.38799C9.51196 4.67848 7.13351 5.96562 5.39494 5.97564C3.33644 5.98733 0.689029 5.76195 0.34448 8.32456C0.144079 9.82706 0.585313 11.3312 0.362059 12.8621C0.2267 13.792 -0.0528065 14.58 0.00872025 15.5349C0.0684891 16.4598 0.230216 17.4231 0.432376 18.3312C0.929863 20.5549 2.70183 21.6468 4.76737 22.398C6.5868 23.0574 9.25003 23.5199 11.1064 22.7486C11.3947 22.6284 11.6707 22.4564 11.9273 22.2494C11.9765 22.8538 12.1295 23.4598 12.5004 24.0107C12.9785 24.7569 13.6483 25.0791 14.2864 25.0641C15.1039 25.0524 15.8228 24.6885 16.5383 24.58C16.6561 24.5599 16.7879 24.5516 16.925 24.5516C17.5667 24.5466 18.3472 24.7603 19.1049 24.7653C19.5742 24.767 20.0875 24.6668 20.476 24.2995C21.0632 23.7002 21.1071 22.7319 21.1282 21.6918C21.1282 21.4464 21.1212 21.1977 21.1089 20.9523C21.3989 21.2494 21.7083 21.5165 22.0388 21.7386C23.6561 22.8137 27.7397 23.4214 29.5749 22.6601C29.8632 22.5399 30.1392 22.368 30.3976 22.1609C30.4469 22.7653 30.598 23.3713 30.969 23.9222C31.4489 24.6685 32.1169 24.9907 32.755 24.9756C33.5724 24.964 34.2914 24.6 35.0069 24.4915C35.1246 24.4715 35.2565 24.4631 35.3954 24.4631C36.0352 24.4581 36.8158 24.6718 37.5734 24.6768C38.0445 24.6785 38.5561 24.5783 38.9463 24.2094C39.5317 23.6117 39.5774 22.6434 39.5968 21.6034C39.5968 21.4698 39.595 21.3362 39.5915 21.2027C39.6759 21.3396 39.7638 21.4715 39.8604 21.5967C41.3019 23.4414 44.7879 23.7336 46.9624 23.3546C47.7288 23.2194 48.3107 22.9823 48.7537 22.6685C49.0473 23.4982 49.4322 24.1259 50.0088 24.5783C50.8333 25.2194 51.9302 25.4381 53.4332 25.5099C53.8586 25.5299 54.2577 25.5449 54.6304 25.5449C55.7326 25.5416 56.6484 25.4297 57.3498 24.8855C58.0477 24.3346 58.394 23.4414 58.5136 22.1109C58.5804 21.3446 58.6103 20.5917 58.6103 19.8488C58.6103 19.7853 58.6068 19.7236 58.6068 19.6601C58.9952 20.3179 59.5209 20.8855 60.2469 21.2978C62.1771 22.3863 65.0213 22.2578 67.1519 21.9456C68.8641 21.6952 70.3214 20.9456 70.346 19.1008C70.3566 18.3346 69.8099 17.8087 69.7027 17.0825C69.5497 16.0374 69.9382 15.0491 69.9786 14.009C70.0402 12.3563 70.2599 10.3028 69.838 8.72856C69.2825 6.65844 65.4345 4.37297 63.3408 4.13423C61.4985 3.92555 58.9812 4.26779 58.0811 5.99734C58.0249 6.10586 57.9757 6.22272 57.9264 6.34292C57.893 5.51487 57.828 4.69851 57.6962 3.95728C57.4764 2.75694 57.1231 1.72355 56.3021 1.16428C56.0209 0.983984 55.8187 0.837074 55.5638 0.720213C55.3107 0.603351 55.0189 0.54492 54.6743 0.54492C54.5724 0.54492 54.4704 0.549927 54.3579 0.556604L54.3649 0.554937ZM20.2967 21.6885C20.3178 22.6635 20.128 23.5599 19.8924 23.7302C19.7113 23.9005 19.4758 23.9656 19.1084 23.969C18.5247 23.974 17.7337 23.7603 16.9286 23.7553C16.7528 23.7553 16.5787 23.7653 16.4012 23.7953C15.5328 23.9473 14.805 24.2795 14.2899 24.2678C13.905 24.2528 13.6202 24.166 13.2088 23.58C12.8573 23.0591 12.7465 22.4347 12.7465 21.7419L12.7465 21.7369C12.7465 21.615 12.75 21.4915 12.7553 21.368C13.1368 20.8371 13.3952 20.2394 13.462 19.6868C13.5674 18.8204 13.1772 18.3162 12.9012 17.6768C12.8748 16.7453 12.8309 15.8054 12.7869 14.8738C12.8449 14.5433 12.9065 14.221 12.9557 13.9205C13.2668 11.9506 13.6764 8.03741 12.0785 6.15427C12.1189 5.64676 12.2016 5.20101 12.3352 4.85878C12.5514 4.33123 12.801 4.09584 13.1948 4.03407C13.2475 4.02739 13.3249 4.02238 13.4163 4.02238C13.8065 4.02072 14.3989 4.1092 14.9404 4.11086C15.088 4.11086 15.2357 4.10419 15.3798 4.08081C16.1797 3.95227 16.9497 3.53323 17.5139 3.54826L17.5438 3.54826C18.6091 3.57664 19.0328 3.84041 19.3105 4.25945C19.5935 4.69016 19.692 5.41971 19.7236 6.33624C18.9502 6.64509 18.2909 7.16596 17.8638 8.04743C17.0428 9.74359 17.6001 12.8104 18.0114 14.5316C18.3999 16.1426 19.0996 18.2044 20.2 19.822C20.2492 20.3997 20.2967 21.0591 20.2967 21.6868L20.2967 21.6885ZM38.3645 23.6417C38.1816 23.8104 37.9461 23.8771 37.5787 23.8788C36.9951 23.8838 36.204 23.6701 35.4006 23.6651C35.2248 23.6651 35.0491 23.6768 34.8715 23.7035C34.0031 23.8554 33.2753 24.1893 32.7603 24.176C32.3753 24.1609 32.0923 24.0758 31.6791 23.4882C31.3276 22.9656 31.2168 22.3396 31.2168 21.6434L31.2168 21.6301C31.2168 21.5132 31.2203 21.393 31.2274 21.2745C31.6071 20.7436 31.8672 20.1459 31.934 19.5933C32.0378 18.7252 31.6475 18.2227 31.3715 17.5833C31.3469 16.6518 31.303 15.7119 31.2572 14.7803C31.3153 14.4514 31.3768 14.1292 31.426 13.8287C31.7389 11.8588 32.1485 7.94559 30.5488 6.06245C30.5892 5.55661 30.6736 5.10919 30.809 4.76863C31.0234 4.23941 31.2748 4.00569 31.6668 3.94392C31.7213 3.93724 31.7987 3.93223 31.8901 3.93223C32.2786 3.93056 32.871 4.02071 33.4142 4.02238C33.5601 4.02238 33.7078 4.0157 33.8519 3.99233C34.6518 3.86379 35.4217 3.44475 35.986 3.45978C35.986 3.45978 35.9948 3.45978 36.0106 3.45978C37.0794 3.48649 37.5048 3.75026 37.7844 4.17096C38.0674 4.60335 38.1641 5.33791 38.1975 6.25945C38.3662 10.3496 38.3469 14.3796 38.5684 18.4715C38.6035 19.1092 38.7705 20.413 38.7705 21.5967C38.7899 22.5716 38.6 23.4681 38.3662 23.6384L38.3645 23.6417ZM55.2087 1.4314C55.3546 1.49817 55.541 1.62338 55.8345 1.81537C56.3057 2.10586 56.6871 2.9556 56.8787 4.08415C57.0774 5.20769 57.1231 6.57831 57.1231 7.88048C57.1231 8.85878 57.0985 9.80035 57.0985 10.585C57.0985 11.0625 57.1073 11.4832 57.1389 11.8237C57.392 14.5599 57.7788 17.1609 57.7788 19.8454C57.7788 20.5683 57.7506 21.2995 57.6856 22.0391C57.5731 23.2895 57.262 23.9306 56.8242 24.2695C56.39 24.6167 55.6869 24.7486 54.6356 24.7469C54.2858 24.7469 53.9008 24.7336 53.4825 24.7135C52.0287 24.6468 51.1339 24.4281 50.545 23.9623C50.0616 23.585 49.7065 22.9823 49.4235 22.0174C50.4852 20.58 50.1161 18.3346 50.545 16.4865C51.2939 13.2528 52.4189 11.6768 49.3777 9.41971C48.7326 8.94058 48.3195 8.23273 47.9732 7.49317C47.9486 6.80869 47.938 6.11921 47.938 5.41804L47.938 5.41637C47.9363 4.56162 47.989 3.97397 48.0962 3.59333C48.2808 3.03073 48.4232 2.9339 48.9312 2.77197C49.4445 2.63006 50.2971 2.58665 51.4837 2.40802C52.7002 2.19433 53.595 1.3713 54.4194 1.34626C54.5179 1.33958 54.6058 1.33624 54.6796 1.33624C54.945 1.33958 55.0628 1.36796 55.2087 1.43307L55.2087 1.4314Z" fill="white"/>
<path d="M70.427 15.0629L90.2755 15.0629C90.4899 15.0629 90.7079 15.0696 90.9241 15.0612C91.005 15.0579 91.0736 15.0462 91.1316 15.0245C91.2792 14.9727 91.3689 14.8659 91.4638 14.7006C91.6537 14.3684 91.7627 13.9978 91.5517 13.6472C91.4621 13.4986 91.3355 13.3734 91.1949 13.2699C90.9962 13.1213 90.845 13.123 90.5937 13.123L70.5219 13.123L70.3672 15.0629C70.3672 15.0629 70.4234 15.0629 70.4252 15.0629L70.427 15.0629Z" fill="white"/>
</svg>
